<svg width="804" height="622" xmlns="http://www.w3.org/2000/svg" xmlns:xlink="http://www.w3.org/1999/xlink" overflow="hidden"><defs><clipPath id="clip0"><rect x="1108" y="1166" width="804" height="622"/></clipPath></defs><g clip-path="url(#clip0)" transform="translate(-1108 -1166)"><path d="M1217 1371 1217 1559.15" stroke="#000000" stroke-width="2.29167" stroke-miterlimit="8" fill="none" fill-rule="evenodd"/><path d="M1217 1166 1217 1354.15" stroke="#000000" stroke-width="2.29167" stroke-miterlimit="8" fill="none" fill-rule="evenodd"/><path d="M1217 1577 1217 1765.15" stroke="#000000" stroke-width="2.29167" stroke-miterlimit="8" fill="none" fill-rule="evenodd"/><path d="M1800 1166 1800 1786.58" stroke="#000000" stroke-width="2.29167" stroke-miterlimit="8" fill="none" fill-rule="evenodd"/><path d="M1159.27 1336.78C1160.77 1336.78 1162.15 1336.88 1163.43 1337.08 1164.71 1337.29 1166.12 1337.63 1167.67 1338.12L1166.3 1344.4 1163.96 1344.4C1163.89 1343.01 1163.68 1341.93 1163.32 1341.14 1162.96 1340.35 1162.45 1339.78 1161.78 1339.44 1161.12 1339.1 1160.23 1338.93 1159.12 1338.93 1157.77 1338.93 1156.58 1339.2 1155.56 1339.76 1154.53 1340.31 1153.75 1341.06 1153.21 1342.02 1152.68 1342.97 1152.41 1344.03 1152.41 1345.2 1152.41 1346.42 1152.73 1347.49 1153.37 1348.41 1154.01 1349.33 1155.25 1350.42 1157.07 1351.67 1158.67 1352.78 1159.88 1353.77 1160.72 1354.64 1161.56 1355.51 1162.18 1356.43 1162.58 1357.41 1162.97 1358.39 1163.17 1359.52 1163.17 1360.8 1163.17 1362.79 1162.7 1364.55 1161.75 1366.09 1160.79 1367.63 1159.45 1368.82 1157.72 1369.65 1155.98 1370.49 1154.01 1370.91 1151.8 1370.91 1150.3 1370.91 1148.68 1370.79 1146.95 1370.54 1145.22 1370.3 1143.67 1369.99 1142.3 1369.62L1143.77 1362.9 1146.11 1362.9C1146.11 1364.89 1146.57 1366.37 1147.49 1367.33 1148.41 1368.3 1149.83 1368.79 1151.75 1368.79 1153.96 1368.79 1155.7 1368.18 1156.97 1366.98 1158.24 1365.78 1158.88 1364.1 1158.88 1361.95 1158.88 1360.96 1158.7 1360.08 1158.35 1359.33 1158 1358.57 1157.47 1357.85 1156.77 1357.15 1156.06 1356.46 1155.04 1355.67 1153.7 1354.77 1152.5 1353.96 1151.5 1353.16 1150.7 1352.37 1149.9 1351.58 1149.27 1350.7 1148.79 1349.72 1148.32 1348.74 1148.09 1347.65 1148.09 1346.45 1148.09 1344.53 1148.55 1342.83 1149.48 1341.37 1150.41 1339.9 1151.72 1338.77 1153.41 1337.98 1155.1 1337.18 1157.05 1336.78 1159.27 1336.78Z" fill-rule="evenodd"/><text fill="#000000" fill-opacity="0" font-family="Arial,Arial_MSFontService,sans-serif" font-size="34.1309" x="1142.3" y="1366.64">𝑆</text><path d="M1177.41 1357.52 1178.51 1357.52C1178.49 1358.18 1178.47 1358.77 1178.46 1359.3 1178.45 1359.82 1178.44 1360.33 1178.43 1360.82 1178.43 1361.32 1178.42 1361.8 1178.42 1362.28L1178.42 1376.02C1178.42 1376.39 1178.44 1376.71 1178.46 1376.98 1178.48 1377.25 1178.52 1377.48 1178.58 1377.67 1178.63 1377.86 1178.7 1378.02 1178.79 1378.15 1178.88 1378.28 1178.99 1378.39 1179.11 1378.49 1179.25 1378.64 1179.45 1378.75 1179.69 1378.82 1179.93 1378.9 1180.24 1378.97 1180.61 1379.02 1180.98 1379.08 1181.43 1379.12 1181.96 1379.15 1182.48 1379.18 1183.11 1379.2 1183.84 1379.21L1183.84 1380.78 1169.52 1380.78 1169.52 1379.21C1170.23 1379.19 1170.83 1379.16 1171.32 1379.13 1171.82 1379.1 1172.24 1379.06 1172.59 1379.01 1172.94 1378.95 1173.22 1378.89 1173.43 1378.82 1173.64 1378.76 1173.82 1378.68 1173.98 1378.58 1174.15 1378.47 1174.29 1378.36 1174.41 1378.23 1174.53 1378.1 1174.63 1377.94 1174.7 1377.75 1174.77 1377.56 1174.83 1377.32 1174.87 1377.05 1174.92 1376.77 1174.94 1376.43 1174.94 1376.02L1174.94 1363.06C1174.94 1362.59 1174.85 1362.26 1174.67 1362.07 1174.49 1361.88 1174.23 1361.78 1173.89 1361.78 1173.52 1361.78 1172.96 1361.97 1172.23 1362.36 1171.49 1362.74 1170.54 1363.31 1169.37 1364.07 1169.22 1363.8 1169.07 1363.52 1168.94 1363.24 1168.81 1362.97 1168.67 1362.68 1168.52 1362.39 1170.02 1361.57 1171.5 1360.76 1172.96 1359.95 1174.42 1359.13 1175.91 1358.32 1177.41 1357.52Z" fill-rule="evenodd"/><text fill="#000000" fill-opacity="0" font-family="Arial,Arial_MSFontService,sans-serif" font-size="23.2695" x="1168.52" y="1377.88">1</text><path d="M1159.25 1542.49C1160.74 1542.49 1162.13 1542.6 1163.41 1542.8 1164.69 1543 1166.1 1543.35 1167.64 1543.84L1166.28 1550.11 1163.93 1550.11C1163.87 1548.73 1163.66 1547.64 1163.3 1546.85 1162.94 1546.06 1162.43 1545.5 1161.76 1545.16 1161.09 1544.81 1160.21 1544.64 1159.1 1544.64 1157.75 1544.64 1156.56 1544.92 1155.53 1545.47 1154.51 1546.03 1153.73 1546.78 1153.19 1547.73 1152.65 1548.68 1152.38 1549.75 1152.38 1550.92 1152.38 1552.14 1152.71 1553.21 1153.35 1554.13 1153.99 1555.05 1155.22 1556.13 1157.05 1557.39 1158.64 1558.49 1159.86 1559.48 1160.7 1560.35 1161.54 1561.22 1162.15 1562.15 1162.55 1563.12 1162.95 1564.1 1163.15 1565.23 1163.15 1566.52 1163.15 1568.5 1162.68 1570.27 1161.72 1571.8 1160.77 1573.34 1159.43 1574.53 1157.69 1575.37 1155.96 1576.21 1153.99 1576.63 1151.77 1576.63 1150.28 1576.63 1148.66 1576.5 1146.93 1576.26 1145.19 1576.01 1143.64 1575.71 1142.28 1575.33L1143.74 1568.62 1146.08 1568.62C1146.08 1570.6 1146.55 1572.08 1147.47 1573.05 1148.38 1574.02 1149.81 1574.5 1151.73 1574.5 1153.94 1574.5 1155.68 1573.9 1156.95 1572.69 1158.22 1571.49 1158.85 1569.81 1158.85 1567.67 1158.85 1566.67 1158.68 1565.8 1158.33 1565.04 1157.98 1564.28 1157.45 1563.56 1156.74 1562.87 1156.03 1562.18 1155.01 1561.38 1153.68 1560.49 1152.47 1559.67 1151.47 1558.87 1150.68 1558.08 1149.88 1557.29 1149.24 1556.41 1148.77 1555.43 1148.3 1554.46 1148.06 1553.37 1148.06 1552.16 1148.06 1550.24 1148.53 1548.55 1149.46 1547.08 1150.38 1545.62 1151.69 1544.49 1153.39 1543.69 1155.08 1542.89 1157.03 1542.49 1159.25 1542.49Z" fill-rule="evenodd"/><text fill="#000000" fill-opacity="0" font-family="Arial,Arial_MSFontService,sans-serif" font-size="34.1309" x="1142.28" y="1572.36">𝑆</text><path d="M1177.15 1563.1C1178.4 1563.1 1179.47 1563.25 1180.36 1563.53 1181.24 1563.81 1181.96 1564.19 1182.51 1564.68 1183.07 1565.16 1183.47 1565.74 1183.72 1566.41 1183.96 1567.08 1184.09 1567.81 1184.09 1568.6 1184.09 1569.07 1184.05 1569.5 1183.99 1569.91 1183.92 1570.31 1183.81 1570.71 1183.64 1571.1 1183.48 1571.49 1183.27 1571.88 1183 1572.28 1182.74 1572.68 1182.41 1573.1 1182.01 1573.55 1181.71 1573.93 1181.32 1574.38 1180.83 1574.88 1180.35 1575.39 1179.83 1575.93 1179.25 1576.51 1178.68 1577.09 1178.08 1577.69 1177.46 1578.32 1176.83 1578.94 1176.22 1579.56 1175.63 1580.18 1175.04 1580.79 1174.5 1581.39 1174.01 1581.96 1173.51 1582.54 1173.11 1583.07 1172.79 1583.55L1179.48 1583.55C1180.05 1583.55 1180.5 1583.53 1180.83 1583.49 1181.17 1583.45 1181.45 1583.36 1181.67 1583.21 1181.9 1583.07 1182.09 1582.85 1182.24 1582.55 1182.4 1582.26 1182.58 1581.85 1182.79 1581.33L1184.47 1581.33C1184.41 1582.19 1184.35 1583.05 1184.29 1583.92 1184.24 1584.78 1184.18 1585.64 1184.12 1586.5L1168.82 1586.5 1168.82 1585.56C1169.11 1584.91 1169.45 1584.27 1169.83 1583.64 1170.22 1583 1170.65 1582.36 1171.13 1581.71 1171.61 1581.06 1172.16 1580.39 1172.78 1579.7 1173.39 1579.01 1174.07 1578.29 1174.82 1577.54 1175.95 1576.41 1176.87 1575.44 1177.58 1574.64 1178.29 1573.84 1178.85 1573.12 1179.26 1572.5 1179.67 1571.87 1179.95 1571.29 1180.1 1570.76 1180.25 1570.23 1180.33 1569.67 1180.33 1569.07 1180.33 1568.45 1180.24 1567.89 1180.07 1567.37 1179.89 1566.85 1179.64 1566.41 1179.32 1566.05 1178.99 1565.69 1178.58 1565.4 1178.08 1565.2 1177.58 1564.99 1177 1564.89 1176.35 1564.89 1175.23 1564.89 1174.29 1565.2 1173.54 1565.8 1172.78 1566.41 1172.19 1567.3 1171.77 1568.45L1169.4 1568.45 1169.4 1564.93C1170.94 1564.29 1172.36 1563.83 1173.65 1563.54 1174.95 1563.25 1176.11 1563.1 1177.15 1563.1Z" fill-rule="evenodd"/><text fill="#000000" fill-opacity="0" font-family="Arial,Arial_MSFontService,sans-serif" font-size="23.396" x="1168.82" y="1583.58">2</text><path d="M1.14588 22.9167 1.14615 165.229-1.14552 165.229-1.14579 22.9167ZM-13.7499 27.5 0 0 13.7501 27.5ZM13.7503 160.646 0.000360892 188.146-13.7497 160.646Z" fill="#4472C4" transform="matrix(1 0 0 -1 1266 1559.15)"/><path d="M1293.97 1441.76C1293.19 1441.76 1292.42 1442.01 1291.67 1442.51 1290.91 1443.01 1290.07 1443.83 1289.14 1444.98 1288.21 1446.12 1287.46 1447.3 1286.87 1448.5 1286.28 1449.71 1285.79 1451.25 1285.38 1453.12L1285.16 1454.14C1284.92 1455.28 1284.79 1456.39 1284.79 1457.46 1284.79 1458.75 1285.07 1459.68 1285.64 1460.25 1286.2 1460.82 1287.13 1461.1 1288.43 1461.1 1289.1 1461.1 1289.73 1460.99 1290.34 1460.77 1290.94 1460.55 1291.55 1460.19 1292.18 1459.68 1292.81 1459.18 1293.4 1458.52 1293.96 1457.69 1294.52 1456.87 1295.04 1455.86 1295.51 1454.66 1295.98 1453.45 1296.35 1452.16 1296.61 1450.79 1296.87 1449.41 1297 1448.1 1297 1446.84 1297 1445.15 1296.76 1443.88 1296.28 1443.03 1295.8 1442.19 1295.03 1441.76 1293.97 1441.76ZM1289.7 1427.73 1291.12 1427.73 1286.82 1444.82 1287.14 1444.91C1288.72 1442.8 1290.2 1441.27 1291.58 1440.32 1292.96 1439.38 1294.35 1438.91 1295.73 1438.91 1297.51 1438.91 1298.88 1439.58 1299.87 1440.93 1300.85 1442.29 1301.35 1444.19 1301.35 1446.65 1301.35 1449.33 1300.81 1451.97 1299.72 1454.57 1298.64 1457.17 1297.14 1459.22 1295.22 1460.75 1293.3 1462.27 1291.15 1463.03 1288.77 1463.03 1286.61 1463.03 1284.69 1462.5 1283.01 1461.44L1280.76 1463.03 1279.2 1462.64 1285.53 1434.73C1285.9 1433.07 1286.09 1431.87 1286.09 1431.12 1286.09 1430.44 1285.88 1429.96 1285.47 1429.68 1285.05 1429.4 1284.31 1429.25 1283.23 1429.22L1283.52 1427.95Z" fill-rule="evenodd"/><text fill="#000000" fill-opacity="0" font-family="Arial,Arial_MSFontService,sans-serif" font-size="35.3027" x="1279.2" y="1458.62">𝑏</text><path d="M0 0 82.7292 0.000360892" stroke="#000000" stroke-width="2.29167" stroke-miterlimit="8" fill="none" fill-rule="evenodd" transform="matrix(-1 0 0 1 1282.73 1365)"/><path d="M0 0 82.7292 0.000360892" stroke="#000000" stroke-width="2.29167" stroke-miterlimit="8" fill="none" fill-rule="evenodd" transform="matrix(-1 0 0 1 1282.73 1569)"/><path d="M1239.92 1211.85 1762.65 1211.85 1762.65 1214.15 1239.92 1214.15ZM1244.5 1226.75 1217 1213 1244.5 1199.25ZM1758.06 1199.25 1785.56 1213 1758.06 1226.75Z" fill="#4472C4"/><path d="M1504.03 1227.87C1503.31 1227.87 1502.54 1227.89 1501.71 1227.94L1495.38 1256.82C1495.85 1256.87 1496.76 1256.89 1498.09 1256.89 1500.73 1256.89 1502.97 1256.43 1504.81 1255.52 1506.65 1254.6 1508.23 1253.16 1509.57 1251.19 1510.9 1249.23 1511.89 1247.17 1512.52 1244.99 1513.16 1242.82 1513.47 1240.53 1513.47 1238.12 1513.47 1234.72 1512.68 1232.16 1511.09 1230.44 1509.51 1228.72 1507.15 1227.87 1504.03 1227.87ZM1494.7 1225.74 1503.95 1225.74C1506.41 1225.74 1508.4 1225.93 1509.93 1226.3 1511.46 1226.68 1512.89 1227.35 1514.22 1228.33 1515.54 1229.31 1516.54 1230.6 1517.21 1232.22 1517.88 1233.84 1518.21 1235.76 1518.21 1237.97 1518.21 1240.17 1517.96 1242.27 1517.45 1244.27 1516.95 1246.27 1516.22 1248.12 1515.28 1249.8 1514.34 1251.49 1513.21 1252.95 1511.89 1254.2 1510.57 1255.44 1509.29 1256.4 1508.05 1257.07 1506.82 1257.73 1505.43 1258.23 1503.9 1258.57 1502.37 1258.9 1500.59 1259.07 1498.56 1259.07L1488.3 1259.07 1488.57 1257.87C1489.19 1257.77 1489.65 1257.61 1489.96 1257.39 1490.27 1257.18 1490.53 1256.87 1490.74 1256.48 1490.96 1256.09 1491.15 1255.61 1491.33 1255.05 1491.51 1254.49 1491.78 1253.4 1492.14 1251.79L1496.29 1232.99C1496.64 1231.37 1496.82 1230.06 1496.82 1229.06 1496.82 1228.3 1496.63 1227.76 1496.25 1227.46 1495.87 1227.16 1495.26 1226.99 1494.43 1226.94Z" fill-rule="evenodd"/><text fill="#000000" fill-opacity="0" font-family="Arial,Arial_MSFontService,sans-serif" font-size="33.3252" x="1488.3" y="1254.9">𝐷</text><path d="M0 0 27.5 0.000360892" stroke="#000000" stroke-width="2.29167" stroke-miterlimit="8" fill="none" fill-rule="evenodd" transform="matrix(-1 0 0 1 1814.5 1309)"/><path d="M1841.82 1294.31 1850.53 1294.31 1853.32 1317.99 1867.55 1294.31 1875.24 1294.31 1874.97 1295.51C1874.35 1295.64 1873.91 1295.79 1873.64 1295.95 1873.37 1296.11 1873.13 1296.36 1872.91 1296.68 1872.69 1297.01 1872.47 1297.52 1872.25 1298.21 1872.03 1298.9 1871.75 1300.03 1871.41 1301.59L1867.23 1320.53C1867.02 1321.49 1866.88 1322.26 1866.82 1322.82 1866.75 1323.38 1866.72 1323.89 1866.72 1324.34 1866.72 1325.08 1866.9 1325.59 1867.27 1325.89 1867.63 1326.19 1868.25 1326.38 1869.11 1326.44L1868.84 1327.64 1859.08 1327.64 1859.35 1326.44C1859.96 1326.34 1860.43 1326.19 1860.74 1325.97 1861.05 1325.75 1861.31 1325.44 1861.52 1325.05 1861.73 1324.66 1861.93 1324.18 1862.1 1323.62 1862.28 1323.06 1862.55 1321.97 1862.91 1320.36L1866.16 1305.64C1866.61 1303.61 1867.13 1301.58 1867.72 1299.56L1867.38 1299.56C1866.87 1300.52 1865.73 1302.48 1863.96 1305.42L1852.85 1323.76 1850.19 1323.76 1848.16 1308.06C1847.87 1305.84 1847.55 1302.87 1847.19 1299.12L1846.7 1299.12C1846.15 1302.77 1845.53 1306.15 1844.84 1309.25L1842.35 1320.53C1842.01 1322.08 1841.84 1323.35 1841.84 1324.34 1841.84 1325.08 1842.02 1325.59 1842.39 1325.89 1842.76 1326.19 1843.37 1326.38 1844.23 1326.44L1843.96 1327.64 1835.42 1327.64 1835.69 1326.44C1836.31 1326.34 1836.77 1326.19 1837.08 1325.97 1837.39 1325.75 1837.65 1325.44 1837.86 1325.05 1838.07 1324.66 1838.27 1324.18 1838.45 1323.62 1838.63 1323.06 1838.89 1321.97 1839.25 1320.36L1843.4 1301.56C1843.57 1300.86 1843.7 1300.2 1843.79 1299.56 1843.89 1298.93 1843.94 1298.28 1843.94 1297.63 1843.94 1296.87 1843.75 1296.34 1843.37 1296.03 1842.98 1295.73 1842.38 1295.56 1841.55 1295.51Z" fill-rule="evenodd"/><text fill="#000000" fill-opacity="0" font-family="Arial,Arial_MSFontService,sans-serif" font-size="33.3252" x="1835.42" y="1323.47">𝑀</text><path d="M1850.27 1448.21C1848.51 1448.21 1846.87 1448.84 1845.35 1450.09 1843.83 1451.35 1842.5 1453.14 1841.35 1455.46 1840.2 1457.79 1839.31 1460.35 1838.67 1463.13 1838.04 1465.91 1837.72 1468.37 1837.72 1470.5 1837.72 1475.53 1839.55 1478.05 1843.22 1478.05 1845.45 1478.05 1847.49 1477.02 1849.36 1474.97 1851.22 1472.92 1852.75 1470.04 1853.93 1466.34 1855.12 1462.64 1855.72 1459.09 1855.72 1455.68 1855.72 1450.7 1853.9 1448.21 1850.27 1448.21ZM1850.54 1446.07C1853.68 1446.07 1856.1 1446.98 1857.8 1448.8 1859.5 1450.62 1860.35 1453.26 1860.35 1456.71 1860.35 1459.23 1859.92 1462.07 1859.06 1465.22 1858.2 1468.37 1856.95 1471.09 1855.31 1473.4 1853.68 1475.7 1851.81 1477.41 1849.71 1478.52 1847.61 1479.64 1845.41 1480.2 1843.12 1480.2 1839.85 1480.2 1837.36 1479.28 1835.67 1477.46 1833.98 1475.64 1833.13 1473.03 1833.13 1469.65 1833.13 1467.21 1833.54 1464.45 1834.37 1461.37 1835.19 1458.3 1836.38 1455.58 1837.93 1453.23 1839.48 1450.88 1841.34 1449.1 1843.5 1447.88 1845.65 1446.67 1848 1446.07 1850.54 1446.07Z" fill-rule="evenodd"/><text fill="#000000" fill-opacity="0" font-family="Arial,Arial_MSFontService,sans-serif" font-size="34.1309" x="1833.13" y="1475.93">𝑂</text><path d="M0.00337649-1.14583 9.17-1.11882 9.16325 1.17284-0.00337649 1.14583ZM16.045-1.09856 25.2116-1.07155 25.2048 1.22011 16.0382 1.1931ZM32.0866-1.05129 41.2532-1.02427 41.2464 1.26738 32.0798 1.24037ZM48.1282-1.00402 57.2948-0.977004 57.288 1.31465 48.1214 1.28764ZM64.1698-0.956745 73.3364-0.929733 73.3296 1.36192 64.163 1.33491ZM80.2114-0.909474 89.378-0.882462 89.3712 1.40919 80.2046 1.38218ZM96.253-0.862203 105.42-0.835191 105.413 1.45647 96.2462 1.42945ZM112.295-0.814933 121.461-0.787921 121.454 1.50374 112.288 1.47672ZM128.336-0.767662 137.503-0.74065 137.496 1.55101 128.329 1.52399ZM144.378-0.720391 153.544-0.693379 153.538 1.59828 144.371 1.57127ZM160.419-0.67312 169.586-0.646108 169.579 1.64555 160.413 1.61854ZM176.461-0.625849 185.628-0.598837 185.621 1.69282 176.454 1.66581ZM192.503-0.578578 201.669-0.551566 201.662 1.74009 192.496 1.71308ZM208.544-0.531308 217.711-0.504296 217.704 1.78736 208.537 1.76035ZM224.586-0.484037 233.752-0.457025 233.746 1.83463 224.579 1.80762ZM240.627-0.436766 249.794-0.409754 249.787 1.8819 240.621 1.85489ZM256.669-0.389495 265.836-0.362483 265.829 1.92917 256.662 1.90216ZM272.711-0.342224 281.877-0.315212 281.87 1.97644 272.704 1.94943ZM288.752-0.294953 297.919-0.267941 297.912 2.02372 288.745 1.9967ZM304.794-0.247682 313.96-0.220671 313.954 2.07099 304.787 2.04397ZM320.835-0.200412 330.002-0.1734 329.995 2.11826 320.829 2.09124ZM336.877-0.153141 346.044-0.126129 346.037 2.16553 336.87 2.13852ZM352.919-0.10587 362.085-0.0788582 362.078 2.2128 352.912 2.18579ZM368.96-0.0585992 378.127-0.0315873 378.12 2.26007 368.953 2.23306ZM385.002-0.0113284 394.168 0.0156835 394.162 2.30734 384.995 2.28033ZM401.043 0.0359425 410.21 0.0629543 410.203 2.35461 401.037 2.3276ZM417.085 0.0832133 426.251 0.110225 426.245 2.40188 417.078 2.37487ZM433.126 0.130484 442.293 0.157496 442.286 2.44915 433.12 2.42214ZM449.168 0.177755 458.335 0.204767 458.328 2.49642 449.161 2.46941ZM465.21 0.225026 474.376 0.252038 474.369 2.54369 465.203 2.51668ZM481.251 0.272297 490.418 0.299309 490.411 2.59097 481.244 2.56395ZM497.293 0.319567 506.459 0.346579 506.453 2.63824 497.286 2.61122ZM513.334 0.366838 522.501 0.39385 522.494 2.68551 513.328 2.6585ZM529.376 0.414109 538.543 0.441121 538.536 2.73278 529.369 2.70577ZM545.418 0.46138 554.584 0.488392 554.577 2.78005 545.411 2.75304ZM561.459 0.508651 570.626 0.535663 570.619 2.82732 561.452 2.80031ZM577.501 0.555922 586.667 0.582934 586.661 2.87459 577.494 2.84758ZM593.542 0.603193 602.709 0.630205 602.702 2.92186 593.536 2.89485ZM609.584 0.650464 618.751 0.677475 618.744 2.96913 609.577 2.94212ZM625.626 0.697734 634.792 0.724746 634.785 3.0164 625.619 2.98939ZM641.667 0.745005 650.834 0.772017 650.827 3.06367 641.66 3.03666ZM657.709 0.792276 664.284 0.811652 664.278 3.10331 657.702 3.08393ZM-0.0270119 9.16663C-5.0896 9.15171-9.18155 5.03558-9.16663-0.0270119-9.15171-5.0896-5.03558-9.18155 0.0270119-9.16663 5.0896-9.15171 9.18155-5.03558 9.16663 0.0270119 9.15171 5.0896 5.03558 9.18155-0.0270119 9.16663ZM664.308-7.20915C669.371-7.19423 673.462-3.0781 673.448 1.98449 673.433 7.04708 669.316 11.139 664.254 11.1241 659.191 11.1092 655.099 6.99306 655.114 1.93047 655.129-3.13212 659.245-7.22406 664.308-7.20915Z" transform="matrix(1 0 0 -1 1138 1469.96)"/></g></svg>